#N canvas 1 95 625 420 10;
#X obj 207 470 outlet~;
#X obj 11 23 inlet;
#X obj 141 446 *~;
#X obj 76 54 line~;
#X obj 77 29 pack 1 5000;
#X obj 9 135 switch~;
#X obj 10 46 moses 1;
#X obj 10 91 delay 5000;
#X floatatom 10 118 5 0 0 0 - - -, f 5;
#X obj 8 69 sel 0;
#X text 255 25 fade in/out bit;
#X text 6 0 switch off the audio dsp after it's finished fading out
;
#X text 10 196 comment;
#X obj 222 259 phasor~;
#X obj 231 338 vcf~;
#X floatatom 359 302 5 0 0 0 - - -, f 5;
#X obj 363 246 loadbang;
#X obj 142 471 outlet~;
#X obj 192 444 *~;
#X obj 278 89 unpackOSC;
#X obj 222 259 phasor~;
#X obj 250 223 line;
#X floatatom 261 287 5 0 0 0 - - -, f 5;
#X floatatom 221 239 5 0 0 0 - - -, f 5;
#X obj 276 115 route /gps;
#X obj 276 142 bng 15 250 50 0 empty empty empty 17 7 0 10 -262144
-1 -1;
#X obj 294 172 delay 100;
#X obj 261 308 *;
#X floatatom 306 285 5 0 0 0 - - -, f 5;
#X msg 276 48 port 8890;
#X obj 278 71 udpreceive 8890;
#X obj 297 194 0 1000;
#X obj 233 377 *~ 0.15;
#X obj 249 196 1 10;
#X msg 359 281 26;
#X connect 1 0 4 0;
#X connect 1 0 6 0;
#X connect 2 0 17 0;
#X connect 3 0 2 1;
#X connect 3 0 18 1;
#X connect 4 0 3 0;
#X connect 6 0 9 0;
#X connect 6 1 5 0;
#X connect 7 0 8 0;
#X connect 8 0 5 0;
#X connect 9 0 7 0;
#X connect 13 0 14 0;
#X connect 14 0 32 0;
#X connect 15 0 14 2;
#X connect 16 0 34 0;
#X connect 18 0 0 0;
#X connect 19 0 24 0;
#X connect 21 0 22 0;
#X connect 22 0 27 0;
#X connect 23 0 13 0;
#X connect 24 0 25 0;
#X connect 25 0 26 0;
#X connect 25 0 33 0;
#X connect 26 0 31 0;
#X connect 27 0 14 1;
#X connect 28 0 27 1;
#X connect 29 0 30 0;
#X connect 30 0 19 0;
#X connect 31 0 21 0;
#X connect 32 0 2 0;
#X connect 32 0 18 0;
#X connect 33 0 21 0;
#X connect 34 0 15 0;
