#N canvas 122 88 1452 686 10;
#X obj 462 715 tabwrite~ out;
#X obj 460 672 bng 15 250 50 0 empty empty empty 17 7 0 10 -262144
-1 -1;
#X obj 196 713 +~;
#X obj 197 793 dac~;
#X text 244 185 zone subpatches;
#X text 8 7 sonic kayak zone mixer;
#X msg 564 26 port 8888;
#X obj 563 46 udpreceive 8888;
#X obj 563 66 unpackOSC;
#X obj 561 87 route /entered-zone /left-zone;
#X msg 86 212 1;
#X msg 55 212 1;
#X msg 116 211 1;
#X msg 14 242 0;
#X msg 16 212 0;
#X msg 17 268 0;
#X obj 560 109 unpack s;
#X obj 663 110 unpack s;
#X obj 41 386 loadbang;
#X msg 41 410 1;
#X msg 99 425 0;
#X msg 42 66 \; pd dsp 1;
#X obj 41 35 loadbang;
#X obj 221 712 +~;
#X msg 264 261 1;
#X text 17 361 startup sound;
#X obj 50 238 zone-gps-sense;
#X obj 50 285 zone-hydrophone;
#X obj 50 262 zone-tempwater-sine;
#X msg 296 260 1;
#X msg 326 259 1;
#N canvas 0 50 450 250 (subpatch) 0;
#X array out 100 float 3;
#A 0 0.0256805 0.0256412 0.0255207 0.025565 0.0256254 0.0256007 0.0255416
0.0256091 0.0255067 0.0255033 0.0254807 0.0254235 0.025288 0.0253163
0.0252575 0.0251423 0.0251833 0.025064 0.0250932 0.0251471 0.0250263
0.0251591 0.0251514 0.0250893 0.0251042 0.0249874 0.0250077 0.0249525
0.0249916 0.0247873 0.02493 0.0247006 0.0246389 0.0246161 0.0246189
0.0245557 0.0245839 0.0246081 0.0246503 0.0246599 0.0245358 0.02467
0.0245866 0.0247653 0.0246139 0.0245729 0.0245842 0.0245705 0.0245233
0.0245332 0.0244676 0.0243846 0.0244073 0.024263 0.0244618 0.0243172
0.0242858 0.0243734 0.0243054 0.0244192 0.0244528 0.0243299 0.0244042
0.0244573 0.0243682 0.0243685 0.0244565 0.0242944 0.0244688 0.0243722
0.0243612 0.0244022 0.0243811 0.024418 0.0243603 0.0243882 0.0243645
0.0244609 0.024476 0.0244365 0.0244225 0.0244882 0.0244879 0.0244942
0.0245384 0.0245034 0.024471 0.0244719 0.0244447 0.0244229 0.0246212
0.0245875 0.0246072 0.0246877 0.0246269 0.0247204 0.0247198 0.0247172
0.0249032 0.0247811;
#X coords 0 1 99 -1 200 140 1;
#X restore 1179 29 graph;
#X obj 312 332 loadbang;
#X obj 312 413 loadbang;
#X obj 311 292 loadbang;
#X msg 599 258 1;
#X msg 889 260 0;
#X msg 631 257 1;
#X msg 921 260 0;
#X msg 662 257 1;
#X msg 957 260 0;
#X obj 615 308 loop;
#X obj 614 350 loop;
#X obj 647 329 loadbang;
#X obj 647 288 loadbang;
#X obj 614 391 loop;
#X obj 647 373 loadbang;
#X msg 691 257 1;
#X msg 992 258 0;
#X obj 613 435 loop;
#X obj 646 417 loadbang;
#X msg 1039 352 1;
#X msg 1071 351 1;
#X msg 1102 350 1;
#X obj 1087 423 loadbang;
#X obj 1087 382 loadbang;
#X obj 1087 467 loadbang;
#X text 13 190 continuously playing things;
#X text 559 5 input from swamp zone system;
#X obj 191 43 select start;
#X obj 192 67 select start;
#X msg 223 91 0;
#X msg 192 90 1;
#X obj 183 136 loop;
#X obj 215 116 loadbang;
#X msg 217 136 _ ../sound/pulse_fat.wav;
#X obj 10 498 loop;
#X obj 42 478 loadbang;
#X msg 44 498 _ ../sound/kayaks.wav;
#X obj 99 403 delay 30000;
#X obj 32 173 bng 15 250 50 0 empty empty empty 17 7 0 10 -262144 -1
-1;
#X msg 359 260 1;
#X obj 308 537 loadbang;
#X msg 314 433 _ ../sound/languageofchange_pulse_km.wav;
#X msg 312 353 _ ../sound/feynman.wav;
#X msg 307 556 _ ../sound/frost-take1.wav;
#X obj 616 477 loop;
#X obj 649 459 loadbang;
#X obj 615 521 loop;
#X obj 648 503 loadbang;
#X msg 719 258 1;
#X msg 748 258 1;
#X msg 1023 258 0;
#X msg 1058 256 0;
#X obj 1086 512 loadbang;
#X msg 1137 350 1;
#X obj 193 752 *~;
#X obj 219 751 *~;
#X floatatom 127 771 5 0 0 0 - - -, f 5;
#X obj 125 718 loadbang;
#X obj 275 354 1shot;
#X obj 272 312 1shot;
#X obj 269 557 1shot;
#X obj 1046 402 1shot;
#X obj 1045 443 1shot;
#X obj 1045 484 1shot;
#X obj 1044 529 1shot;
#X obj 274 435 1shot;
#X msg 310 311 _ ../sound/swansea-bay-take1.wav;
#X msg 126 749 4;
#X obj 309 498 loadbang;
#X obj 312 457 loadbang;
#X obj 270 518 1shot;
#X obj 273 477 1shot;
#X msg 308 517 _ ../sound/swansea-bay-take1.wav;
#X obj 244 188 select strip-1-a strip-1-b strip-1-c strip-1-d strip-1-e
strip-1-f srrip-1-g;
#X obj 313 374 loadbang;
#X obj 274 394 1shot;
#X msg 311 476 _ ../sound/Ondayslikethese.wav;
#X msg 312 393 _ ../sound/TheQuestion.wav;
#X msg 396 260 1;
#X msg 426 259 1;
#X msg 459 260 1;
#X msg 780 258 1;
#X msg 808 259 1;
#X msg 837 259 1;
#X msg 1088 257 0;
#X msg 1119 257 0;
#X msg 1154 255 0;
#X obj 601 147 select strip-2-a strip-2-b strip-2-c strip-2-d strip-2-e
strip-2-f strip-2-g strip-2-h strip-2-i, f 66;
#X obj 599 183 select strip-2-a strip-2-b strip-2-c strip-2-d strip-2-e
strip-2-f strip-2-g strip-2-h strip-2-i, f 66;
#X obj 612 561 loop;
#X obj 645 543 loadbang;
#X obj 615 603 loop;
#X obj 648 585 loadbang;
#X obj 614 647 loop;
#X obj 647 629 loadbang;
#X msg 646 308 _ ../sound/waterPangLo.wav;
#X msg 647 350 _ ../sound/watermosKito.wav;
#X msg 646 392 _ ../sound/waterstatix.wav;
#X msg 645 436 _ ../sound/waterwalk2.wav;
#X msg 648 478 _ ../sound/waterminLumpy2.wav;
#X msg 647 522 _ ../sound/waterleisure.wav;
#X msg 644 562 _ ../sound/waterwaltz.wav;
#X msg 647 604 _ ../sound/waterslowstop.wav;
#X msg 646 648 _ ../sound/waterslow.wav;
#X obj 1037 297 select strip-3-a strip-3-b strip-3-c strip-3-d strip-3-e
strip-3-f strip-3-g;
#X obj 1086 557 loadbang;
#X obj 1086 601 loadbang;
#X obj 1085 646 loadbang;
#X obj 1044 577 1shot;
#X obj 1044 618 1shot;
#X obj 1043 663 1shot;
#X msg 1173 351 1;
#X msg 1204 350 1;
#X msg 1239 350 1;
#X msg 1085 620 _ ../sound/risingseaaffectcoastGirl.wa.wav;
#X msg 1086 402 _ ../sound/worldsOceanicwater.wav;
#X msg 1086 445 _ ../sound/riseincarbon.wav;
#X msg 1086 486 _ ../sound/carbonSea.wav;
#X msg 1085 579 _ ../sound/seabass_maturity_victoria.wav;
#X msg 1083 665 _ ../sound/sealevelrise.wav;
#X msg 1084 531 _ ../sound/carbonSeaacidityBellsVOx.wa.wav;
#X obj 461 691 metro 20;
#X connect 1 0 153 0;
#X connect 2 0 86 0;
#X connect 6 0 7 0;
#X connect 7 0 8 0;
#X connect 8 0 9 0;
#X connect 9 0 16 0;
#X connect 9 1 17 0;
#X connect 10 0 28 0;
#X connect 11 0 26 0;
#X connect 12 0 27 0;
#X connect 13 0 28 0;
#X connect 14 0 26 0;
#X connect 15 0 27 0;
#X connect 16 0 59 0;
#X connect 16 0 70 0;
#X connect 16 0 105 0;
#X connect 16 0 119 0;
#X connect 16 0 136 0;
#X connect 17 0 60 0;
#X connect 17 0 120 0;
#X connect 18 0 19 0;
#X connect 18 0 69 0;
#X connect 19 0 66 0;
#X connect 20 0 66 0;
#X connect 22 0 21 0;
#X connect 22 0 12 0;
#X connect 22 0 10 0;
#X connect 22 0 11 0;
#X connect 23 0 0 0;
#X connect 23 0 87 0;
#X connect 24 0 91 0;
#X connect 26 0 2 0;
#X connect 26 1 23 0;
#X connect 27 0 2 0;
#X connect 27 1 23 0;
#X connect 28 0 2 0;
#X connect 28 1 23 0;
#X connect 29 0 90 0;
#X connect 30 0 107 0;
#X connect 32 0 74 0;
#X connect 33 0 73 0;
#X connect 34 0 98 0;
#X connect 35 0 41 0;
#X connect 36 0 41 0;
#X connect 37 0 42 0;
#X connect 38 0 42 0;
#X connect 39 0 45 0;
#X connect 40 0 45 0;
#X connect 41 0 2 0;
#X connect 41 1 23 0;
#X connect 42 0 2 0;
#X connect 42 1 23 0;
#X connect 43 0 128 0;
#X connect 44 0 127 0;
#X connect 45 0 2 0;
#X connect 45 1 23 0;
#X connect 46 0 129 0;
#X connect 47 0 49 0;
#X connect 48 0 49 0;
#X connect 49 0 2 0;
#X connect 49 1 23 0;
#X connect 50 0 130 0;
#X connect 51 0 93 0;
#X connect 52 0 94 0;
#X connect 53 0 95 0;
#X connect 54 0 148 0;
#X connect 55 0 147 0;
#X connect 56 0 149 0;
#X connect 59 0 62 0;
#X connect 60 0 61 0;
#X connect 61 0 63 0;
#X connect 62 0 63 0;
#X connect 63 0 2 0;
#X connect 63 1 23 0;
#X connect 64 0 65 0;
#X connect 65 0 63 1;
#X connect 66 0 2 0;
#X connect 66 1 23 0;
#X connect 67 0 68 0;
#X connect 68 0 66 1;
#X connect 69 0 20 0;
#X connect 70 0 14 0;
#X connect 71 0 97 0;
#X connect 72 0 75 0;
#X connect 73 0 97 1;
#X connect 74 0 90 1;
#X connect 75 0 92 1;
#X connect 76 0 2 0;
#X connect 76 1 23 0;
#X connect 77 0 131 0;
#X connect 78 0 2 0;
#X connect 78 1 23 0;
#X connect 79 0 132 0;
#X connect 80 0 76 0;
#X connect 81 0 78 0;
#X connect 82 0 76 0;
#X connect 83 0 78 0;
#X connect 84 0 152 0;
#X connect 85 0 96 0;
#X connect 86 0 3 0;
#X connect 87 0 3 1;
#X connect 88 0 86 1;
#X connect 88 0 87 1;
#X connect 89 0 99 0;
#X connect 90 0 2 0;
#X connect 90 1 23 0;
#X connect 91 0 2 0;
#X connect 91 1 23 0;
#X connect 92 0 2 0;
#X connect 92 1 23 0;
#X connect 93 0 2 0;
#X connect 93 1 23 0;
#X connect 94 0 2 0;
#X connect 94 1 23 0;
#X connect 95 0 2 0;
#X connect 95 1 23 0;
#X connect 96 0 2 0;
#X connect 96 1 23 0;
#X connect 97 0 2 0;
#X connect 97 1 23 0;
#X connect 98 0 91 1;
#X connect 99 0 88 0;
#X connect 100 0 104 0;
#X connect 101 0 108 0;
#X connect 102 0 2 0;
#X connect 102 1 23 0;
#X connect 103 0 2 0;
#X connect 103 1 23 0;
#X connect 104 0 102 1;
#X connect 105 0 24 0;
#X connect 105 1 29 0;
#X connect 105 2 30 0;
#X connect 105 3 71 0;
#X connect 105 4 110 0;
#X connect 105 5 111 0;
#X connect 105 6 112 0;
#X connect 106 0 109 0;
#X connect 107 0 2 0;
#X connect 107 1 23 0;
#X connect 108 0 103 1;
#X connect 109 0 107 1;
#X connect 110 0 103 0;
#X connect 111 0 102 0;
#X connect 112 0 92 0;
#X connect 113 0 121 0;
#X connect 114 0 123 0;
#X connect 115 0 125 0;
#X connect 116 0 121 0;
#X connect 117 0 123 0;
#X connect 118 0 125 0;
#X connect 119 0 35 0;
#X connect 119 1 37 0;
#X connect 119 2 39 0;
#X connect 119 3 47 0;
#X connect 119 4 80 0;
#X connect 119 5 81 0;
#X connect 119 6 113 0;
#X connect 119 7 114 0;
#X connect 119 8 115 0;
#X connect 120 0 36 0;
#X connect 120 1 38 0;
#X connect 120 2 40 0;
#X connect 120 3 48 0;
#X connect 120 4 82 0;
#X connect 120 5 83 0;
#X connect 120 6 116 0;
#X connect 120 7 117 0;
#X connect 120 8 118 0;
#X connect 121 0 2 0;
#X connect 121 1 23 0;
#X connect 122 0 133 0;
#X connect 123 0 2 0;
#X connect 123 1 23 0;
#X connect 124 0 134 0;
#X connect 125 0 2 0;
#X connect 125 1 23 0;
#X connect 126 0 135 0;
#X connect 127 0 41 1;
#X connect 128 0 42 1;
#X connect 129 0 45 1;
#X connect 130 0 49 1;
#X connect 131 0 76 1;
#X connect 132 0 78 1;
#X connect 133 0 121 1;
#X connect 134 0 123 1;
#X connect 135 0 125 1;
#X connect 136 0 51 0;
#X connect 136 1 52 0;
#X connect 136 2 53 0;
#X connect 136 3 85 0;
#X connect 136 4 143 0;
#X connect 136 5 144 0;
#X connect 136 6 145 0;
#X connect 137 0 150 0;
#X connect 138 0 146 0;
#X connect 139 0 151 0;
#X connect 140 0 2 0;
#X connect 140 1 23 0;
#X connect 141 0 2 0;
#X connect 141 1 23 0;
#X connect 142 0 2 0;
#X connect 142 1 23 0;
#X connect 143 0 140 0;
#X connect 144 0 141 0;
#X connect 145 0 142 0;
#X connect 146 0 141 1;
#X connect 147 0 93 1;
#X connect 148 0 94 1;
#X connect 149 0 95 1;
#X connect 150 0 140 1;
#X connect 151 0 142 1;
#X connect 152 0 96 1;
#X connect 153 0 0 0;
