#N canvas 425 192 450 505 10;
#X obj 194 350 outlet~;
#X obj 11 23 inlet;
#X obj 193 325 *~;
#X obj 361 35 line~;
#X obj 362 10 pack 1 5000;
#X obj 9 135 switch~;
#X obj 10 46 moses 1;
#X obj 10 91 delay 5000;
#X floatatom 9 113 5 0 0 0 - - -, f 5;
#X obj 8 69 sel 0;
#X text 255 25 fade in/out bit;
#X obj 150 150 osc~ 445;
#X text 6 0 switch off the audio dsp after it's finished fading out
;
#X text 10 196 comment;
#X obj 149 127 samphold~;
#X obj 146 102 *~ 1000;
#X obj 162 223 *~ 0.2;
#X obj 151 79 osc~ 593;
#X obj 209 102 phasor~ 4.3;
#X connect 1 0 4 0;
#X connect 1 0 6 0;
#X connect 2 0 0 0;
#X connect 3 0 2 1;
#X connect 4 0 3 0;
#X connect 6 0 9 0;
#X connect 6 1 5 0;
#X connect 7 0 8 0;
#X connect 8 0 5 0;
#X connect 9 0 7 0;
#X connect 11 0 16 0;
#X connect 14 0 11 0;
#X connect 15 0 14 0;
#X connect 16 0 2 0;
#X connect 17 0 15 0;
#X connect 18 0 14 1;
