#N canvas 139 149 843 574 10;
#X obj 149 440 outlet~;
#X obj 11 23 inlet;
#X obj 137 361 *~;
#X obj 361 35 line~;
#X obj 362 10 pack 1 5000;
#X obj 9 135 switch~;
#X obj 10 46 moses 1;
#X obj 10 91 delay 5000;
#X floatatom 9 113 5 0 0 0 - - -, f 5;
#X obj 8 69 sel 0;
#X text 255 25 fade in/out bit;
#X text 6 0 switch off the audio dsp after it's finished fading out
;
#X text 10 196 comment;
#X obj 152 66 loadbang;
#X obj 152 116 soundfiler;
#N canvas 0 50 450 300 (subpatch) 0;
#X array sample-table2 4e+06 float 0;
#X coords 0 1.02 4e+06 -1.02 200 130 1;
#X restore 239 147 graph;
#X obj 136 288 +~ 1;
#X obj 127 221 /;
#X obj 119 170 t b;
#X obj 119 195 f 1;
#X obj 142 144 / 44100;
#X obj 127 243 phasor~;
#X obj 137 265 *~;
#X obj 137 333 *~ 0.5;
#X obj 96 436 outlet~;
#X msg 153 90 read -resize ../samples/voice2.wav sample-table2;
#X obj 136 312 tabread4~ sample-table2;
#X connect 1 0 4 0;
#X connect 1 0 6 0;
#X connect 2 0 0 0;
#X connect 2 0 24 0;
#X connect 3 0 2 1;
#X connect 4 0 3 0;
#X connect 6 0 9 0;
#X connect 6 1 5 0;
#X connect 7 0 8 0;
#X connect 8 0 5 0;
#X connect 9 0 7 0;
#X connect 13 0 25 0;
#X connect 14 0 20 0;
#X connect 14 0 22 1;
#X connect 16 0 26 0;
#X connect 17 0 21 0;
#X connect 18 0 19 0;
#X connect 19 0 17 0;
#X connect 20 0 17 1;
#X connect 20 0 18 0;
#X connect 21 0 22 0;
#X connect 22 0 16 0;
#X connect 23 0 2 0;
#X connect 25 0 14 0;
#X connect 26 0 23 0;
