#N canvas 334 126 844 544 10;
#X obj 126 665 outlet~;
#X obj 11 23 inlet;
#X obj 60 641 *~;
#X obj 76 54 line~;
#X obj 77 29 pack 1 5000;
#X obj 9 135 switch~;
#X obj 10 46 moses 1;
#X obj 10 91 delay 5000;
#X floatatom 10 118 5 0 0 0 - - -, f 5;
#X obj 8 69 sel 0;
#X text 255 25 fade in/out bit;
#X text 6 0 switch off the audio dsp after it's finished fading out
;
#X text 10 196 comment;
#X obj 180 391 vcf~;
#X floatatom 640 227 5 0 0 0 - - -, f 5;
#X obj 646 172 loadbang;
#X obj 61 666 outlet~;
#X obj 111 639 *~;
#X obj 278 89 unpackOSC;
#X msg 278 48 port 8889;
#X obj 278 69 udpreceive 8889;
#X obj 176 168 unpack f;
#X obj 175 190 + 1;
#X obj 175 231 line;
#X obj 175 210 pack 0 1000;
#X floatatom 191 370 5 0 0 0 - - -, f 5;
#X obj 322 393 vcf~;
#X obj 318 170 unpack f;
#X obj 317 192 + 1;
#X obj 317 233 line;
#X obj 317 212 pack 0 1000;
#X floatatom 333 372 5 0 0 0 - - -, f 5;
#X msg 642 206 6;
#X obj 176 267 *;
#X obj 318 268 *;
#X floatatom 235 239 5 0 0 0 - - -, f 5;
#X obj 249 507 *~ 0.5;
#X obj 309 481 *~ 0.75;
#X msg 190 346 500;
#X obj 308 455 delread~ watertemp 1000;
#X obj 330 555 delwrite~ watertemp 1000;
#X obj 194 118 print;
#X msg 334 349 3000;
#X obj 175 299 osc~;
#X obj 317 297 osc~;
#X msg 264 214 20;
#X obj 276 116 route /temp-0 /temp-1 /tempdiff-0 /tempdiff-1;
#X obj 412 205 +~ 1;
#X obj 412 227 *~ 0.5;
#X obj 151 329 *~;
#X obj 413 175 osc~ 0.1;
#X connect 1 0 4 0;
#X connect 1 0 6 0;
#X connect 2 0 16 0;
#X connect 3 0 2 1;
#X connect 3 0 17 1;
#X connect 4 0 3 0;
#X connect 6 0 9 0;
#X connect 6 1 5 0;
#X connect 7 0 8 0;
#X connect 8 0 5 0;
#X connect 9 0 7 0;
#X connect 13 0 36 0;
#X connect 14 0 13 2;
#X connect 14 0 26 2;
#X connect 15 0 32 0;
#X connect 15 0 38 0;
#X connect 15 0 42 0;
#X connect 15 0 45 0;
#X connect 17 0 0 0;
#X connect 18 0 41 0;
#X connect 18 0 46 0;
#X connect 19 0 20 0;
#X connect 20 0 18 0;
#X connect 21 0 22 0;
#X connect 22 0 24 0;
#X connect 23 0 33 0;
#X connect 24 0 23 0;
#X connect 25 0 13 1;
#X connect 26 0 36 0;
#X connect 27 0 28 0;
#X connect 28 0 30 0;
#X connect 29 0 34 0;
#X connect 30 0 29 0;
#X connect 31 0 26 1;
#X connect 32 0 14 0;
#X connect 33 0 43 0;
#X connect 34 0 44 0;
#X connect 35 0 33 1;
#X connect 35 0 34 1;
#X connect 36 0 2 0;
#X connect 36 0 17 0;
#X connect 38 0 25 0;
#X connect 39 0 37 0;
#X connect 42 0 31 0;
#X connect 43 0 49 0;
#X connect 44 0 26 0;
#X connect 45 0 35 0;
#X connect 46 0 21 0;
#X connect 46 1 27 0;
#X connect 47 0 48 0;
#X connect 48 0 49 1;
#X connect 49 0 13 0;
#X connect 50 0 47 0;
