#N canvas 0 87 1351 686 10;
#X obj 126 665 outlet~;
#X obj 11 23 inlet;
#X obj 60 641 *~;
#X obj 76 54 line~;
#X obj 77 29 pack 1 5000;
#X obj 9 135 switch~;
#X obj 10 46 moses 1;
#X obj 10 91 delay 5000;
#X floatatom 9 113 5 0 0 0 - - -, f 5;
#X obj 8 69 sel 0;
#X text 255 25 fade in/out bit;
#X text 6 0 switch off the audio dsp after it's finished fading out
;
#X text 10 196 comment;
#X obj 199 117 phasor~;
#X floatatom 199 97 5 0 0 0 - - -, f 5;
#X obj 396 480 *~;
#X floatatom 416 399 5 0 0 0 - - -, f 5;
#X obj 424 422 / 127;
#X obj 298 364 vcf~;
#X floatatom 354 347 5 0 0 0 - - -, f 5;
#X obj 148 117 phasor~;
#X floatatom 149 96 5 0 0 0 - - -, f 5;
#X obj 170 146 +~;
#X obj 227 457 delwrite~ delarr 500;
#X obj 241 199 *~;
#X floatatom 323 83 5 0 0 0 - - -, f 5;
#X obj 324 106 / 127;
#X obj 314 307 *~ 700;
#X obj 115 362 *~ 1;
#X obj 182 225 +~;
#X obj 172 170 -~ 1;
#X obj 172 194 hip~ 100;
#X obj 89 398 delwrite~ delarray2 1050;
#X obj 262 132 delread~ delarray2 500;
#X obj 277 230 osc~ 0.4;
#X obj 335 229 osc~ 0.134;
#X obj 313 283 +~ 2.5;
#X obj 310 261 samphold~;
#X obj 375 252 phasor~ 3;
#X floatatom 136 318 5 0 0 0 - - -, f 5;
#X obj 136 337 / 127;
#X msg 149 72 4;
#X msg 199 74 3;
#X msg 322 58 277;
#X msg 136 296 289;
#X msg 415 377 645;
#X obj 493 86 loadbang;
#X msg 388 319 66;
#X obj 61 666 outlet~;
#X obj 332 548 delwrite~ waterstereo 500;
#X obj 111 639 *~;
#X obj 320 576 delread~ waterstereo 200;
#X connect 1 0 4 0;
#X connect 1 0 6 0;
#X connect 2 0 48 0;
#X connect 3 0 2 1;
#X connect 3 0 50 1;
#X connect 4 0 3 0;
#X connect 6 0 9 0;
#X connect 6 1 5 0;
#X connect 7 0 8 0;
#X connect 8 0 5 0;
#X connect 9 0 7 0;
#X connect 13 0 22 1;
#X connect 14 0 13 0;
#X connect 15 0 2 0;
#X connect 15 0 49 0;
#X connect 16 0 17 0;
#X connect 17 0 15 1;
#X connect 18 0 15 0;
#X connect 18 0 23 0;
#X connect 18 0 28 0;
#X connect 19 0 18 2;
#X connect 20 0 22 0;
#X connect 21 0 20 0;
#X connect 22 0 30 0;
#X connect 24 0 29 1;
#X connect 25 0 26 0;
#X connect 26 0 24 1;
#X connect 27 0 18 1;
#X connect 28 0 32 0;
#X connect 29 0 18 0;
#X connect 30 0 31 0;
#X connect 31 0 29 0;
#X connect 33 0 24 0;
#X connect 34 0 37 0;
#X connect 35 0 37 0;
#X connect 36 0 27 0;
#X connect 37 0 36 0;
#X connect 38 0 37 1;
#X connect 39 0 40 0;
#X connect 40 0 28 1;
#X connect 41 0 21 0;
#X connect 42 0 14 0;
#X connect 43 0 25 0;
#X connect 44 0 39 0;
#X connect 45 0 16 0;
#X connect 46 0 43 0;
#X connect 46 0 42 0;
#X connect 46 0 41 0;
#X connect 46 0 45 0;
#X connect 46 0 47 0;
#X connect 46 0 44 0;
#X connect 47 0 19 0;
#X connect 50 0 0 0;
#X connect 51 0 50 0;
