#N canvas 193 220 625 420 10;
#X obj 265 223 outlet~;
#X obj 11 23 inlet;
#X obj 199 199 *~;
#X obj 76 54 line~;
#X obj 77 29 pack 1 5000;
#X obj 9 135 switch~;
#X obj 10 46 moses 1;
#X obj 10 91 delay 5000;
#X floatatom 10 118 5 0 0 0 - - -, f 5;
#X obj 8 69 sel 0;
#X text 255 25 fade in/out bit;
#X text 6 0 switch off the audio dsp after it's finished fading out
;
#X text 10 196 comment;
#X obj 200 224 outlet~;
#X obj 250 197 *~;
#X obj 219 94 adc~;
#X obj 261 150 *~;
#X obj 210 149 *~;
#X obj 488 185 / 127;
#X obj 493 34 vsl 15 128 0 127 0 0 empty empty empty 0 -9 0 10 -262144
-1 -1 0 1;
#X obj 215 52 loadbang;
#X msg 359 54 4;
#X floatatom 312 104 5 0 0 0 - - -, f 5;
#X obj 364 226 writesf~;
#X msg 370 182 stop;
#X msg 307 139 open audio.wav \, start;
#X connect 1 0 4 0;
#X connect 1 0 6 0;
#X connect 2 0 13 0;
#X connect 3 0 2 1;
#X connect 3 0 14 1;
#X connect 4 0 3 0;
#X connect 6 0 9 0;
#X connect 6 1 5 0;
#X connect 7 0 8 0;
#X connect 8 0 5 0;
#X connect 9 0 7 0;
#X connect 14 0 0 0;
#X connect 15 0 17 0;
#X connect 15 0 16 0;
#X connect 15 0 23 0;
#X connect 15 1 16 0;
#X connect 15 1 17 0;
#X connect 15 1 23 0;
#X connect 16 0 14 0;
#X connect 17 0 2 0;
#X connect 19 0 18 0;
#X connect 20 0 21 0;
#X connect 20 0 25 0;
#X connect 21 0 22 0;
#X connect 22 0 16 1;
#X connect 22 0 17 1;
#X connect 24 0 23 0;
#X connect 25 0 23 0;
