#N canvas 595 160 844 544 10;
#X obj 126 665 outlet~;
#X obj 11 23 inlet;
#X obj 60 641 *~;
#X obj 76 54 line~;
#X obj 77 29 pack 1 5000;
#X obj 9 135 switch~;
#X obj 10 46 moses 1;
#X obj 10 91 delay 5000;
#X floatatom 10 118 5 0 0 0 - - -, f 5;
#X obj 8 69 sel 0;
#X text 255 25 fade in/out bit;
#X text 6 0 switch off the audio dsp after it's finished fading out
;
#X text 10 196 comment;
#X obj 175 295 phasor~;
#X obj 180 391 vcf~;
#X floatatom 640 227 5 0 0 0 - - -, f 5;
#X obj 646 172 loadbang;
#X obj 61 666 outlet~;
#X obj 111 639 *~;
#X obj 278 89 unpackOSC;
#X msg 278 48 port 8889;
#X obj 278 69 udpreceive 8889;
#X obj 176 168 unpack f;
#X obj 175 190 + 1;
#X obj 175 295 phasor~;
#X obj 175 231 line;
#X obj 175 210 pack 0 1000;
#X obj 177 316 hip~ 500;
#X floatatom 191 370 5 0 0 0 - - -, f 5;
#X obj 317 297 phasor~;
#X obj 322 393 vcf~;
#X obj 318 170 unpack f;
#X obj 317 192 + 1;
#X obj 317 297 phasor~;
#X obj 317 233 line;
#X obj 317 212 pack 0 1000;
#X obj 319 318 hip~ 500;
#X floatatom 333 372 5 0 0 0 - - -, f 5;
#X msg 642 206 6;
#X obj 177 268 *;
#X obj 318 268 *;
#X floatatom 235 239 5 0 0 0 - - -, f 5;
#X obj 249 507 *~ 0.5;
#X obj 276 116 route /tempdiff-0 /tempdiff-1;
#X obj 309 481 *~ 0.75;
#X msg 190 346 500;
#X obj 308 455 delread~ watertemp 1000;
#X obj 330 555 delwrite~ watertemp 1000;
#X obj 194 118 print;
#X msg 264 213 2;
#X msg 334 349 3000;
#X connect 1 0 4 0;
#X connect 1 0 6 0;
#X connect 2 0 17 0;
#X connect 3 0 2 1;
#X connect 3 0 18 1;
#X connect 4 0 3 0;
#X connect 6 0 9 0;
#X connect 6 1 5 0;
#X connect 7 0 8 0;
#X connect 8 0 5 0;
#X connect 9 0 7 0;
#X connect 13 0 27 0;
#X connect 14 0 42 0;
#X connect 15 0 14 2;
#X connect 15 0 30 2;
#X connect 16 0 38 0;
#X connect 16 0 45 0;
#X connect 16 0 50 0;
#X connect 16 0 49 0;
#X connect 18 0 0 0;
#X connect 19 0 43 0;
#X connect 19 0 48 0;
#X connect 20 0 21 0;
#X connect 21 0 19 0;
#X connect 22 0 23 0;
#X connect 23 0 26 0;
#X connect 25 0 39 0;
#X connect 26 0 25 0;
#X connect 27 0 14 0;
#X connect 28 0 14 1;
#X connect 29 0 36 0;
#X connect 31 0 32 0;
#X connect 32 0 35 0;
#X connect 34 0 40 0;
#X connect 35 0 34 0;
#X connect 36 0 30 0;
#X connect 37 0 30 1;
#X connect 38 0 15 0;
#X connect 39 0 13 0;
#X connect 40 0 29 0;
#X connect 41 0 39 1;
#X connect 41 0 40 1;
#X connect 42 0 2 0;
#X connect 42 0 18 0;
#X connect 42 0 47 0;
#X connect 43 0 22 0;
#X connect 43 1 31 0;
#X connect 44 0 42 0;
#X connect 45 0 28 0;
#X connect 46 0 44 0;
#X connect 49 0 41 0;
#X connect 50 0 37 0;
