#N canvas 91 148 625 612 10;
#X obj 207 470 outlet~;
#X obj 11 23 inlet;
#X obj 141 446 *~;
#X obj 76 54 line~;
#X obj 77 29 pack 1 5000;
#X obj 9 135 switch~;
#X obj 10 46 moses 1;
#X obj 10 91 delay 5000;
#X floatatom 10 118 5 0 0 0 - - -, f 5;
#X obj 8 69 sel 0;
#X text 156 29 fade in/out bit;
#X text 6 0 switch off the audio dsp after it's finished fading out
;
#X text 10 196 comment;
#X obj 212 286 phasor~;
#X obj 253 330 vcf~;
#X floatatom 334 300 5 0 0 0 - - -, f 5;
#X obj 331 250 loadbang;
#X obj 142 471 outlet~;
#X obj 192 444 *~;
#X obj 310 67 unpackOSC;
#X obj 261 261 line;
#X floatatom 261 287 5 0 0 0 - - -, f 5;
#X floatatom 215 263 5 0 0 0 - - -, f 5;
#X obj 310 86 route /gps;
#X obj 269 138 bng 15 250 50 0 empty empty empty 17 7 0 10 -262144
-1 -1;
#X obj 261 308 *;
#X floatatom 297 287 5 0 0 0 - - -, f 5;
#X msg 309 30 port 8890;
#X obj 310 49 udpreceive 8890;
#X obj 232 180 1 10;
#X msg 334 280 26;
#X msg 202 180 20;
#X msg 294 260 203;
#X obj 266 180 0 200;
#X obj 267 158 delay 50;
#X obj 233 377 *~ 0.2;
#X obj 423 119 unpack f f;
#X obj 423 139 select 999;
#X obj 423 159 bng 15 250 50 0 empty empty empty 17 7 0 10 -262144
-1 -1;
#X msg 374 188 200;
#X obj 416 188 0 10;
#X obj 517 190 0 200;
#X obj 455 172 delay 100;
#X obj 518 170 delay 150;
#X obj 453 190 1 20;
#X obj 408 285 phasor~;
#X obj 449 329 vcf~;
#X floatatom 530 299 5 0 0 0 - - -, f 5;
#X obj 527 249 loadbang;
#X obj 457 260 line;
#X floatatom 457 286 5 0 0 0 - - -, f 5;
#X floatatom 411 262 5 0 0 0 - - -, f 5;
#X obj 457 307 *;
#X floatatom 493 286 5 0 0 0 - - -, f 5;
#X msg 530 279 26;
#X msg 490 259 203;
#X obj 429 376 *~ 0.2;
#X connect 1 0 4 0;
#X connect 1 0 6 0;
#X connect 2 0 17 0;
#X connect 3 0 2 1;
#X connect 3 0 18 1;
#X connect 4 0 3 0;
#X connect 6 0 9 0;
#X connect 6 1 5 0;
#X connect 7 0 8 0;
#X connect 8 0 5 0;
#X connect 9 0 7 0;
#X connect 13 0 14 0;
#X connect 14 0 35 0;
#X connect 15 0 14 2;
#X connect 16 0 30 0;
#X connect 16 0 32 0;
#X connect 18 0 0 0;
#X connect 19 0 23 0;
#X connect 20 0 21 0;
#X connect 21 0 25 0;
#X connect 22 0 13 0;
#X connect 23 0 24 0;
#X connect 23 0 36 0;
#X connect 24 0 29 0;
#X connect 24 0 34 0;
#X connect 24 0 31 0;
#X connect 25 0 14 1;
#X connect 26 0 25 1;
#X connect 27 0 28 0;
#X connect 28 0 19 0;
#X connect 29 0 20 0;
#X connect 30 0 15 0;
#X connect 31 0 22 0;
#X connect 32 0 26 0;
#X connect 33 0 20 0;
#X connect 34 0 33 0;
#X connect 35 0 2 0;
#X connect 35 0 18 0;
#X connect 36 0 37 0;
#X connect 37 0 38 0;
#X connect 38 0 39 0;
#X connect 38 0 40 0;
#X connect 38 0 42 0;
#X connect 38 0 43 0;
#X connect 39 0 51 0;
#X connect 40 0 49 0;
#X connect 41 0 49 0;
#X connect 42 0 44 0;
#X connect 43 0 41 0;
#X connect 44 0 49 0;
#X connect 45 0 46 0;
#X connect 46 0 56 0;
#X connect 47 0 46 2;
#X connect 48 0 54 0;
#X connect 48 0 55 0;
#X connect 49 0 50 0;
#X connect 50 0 52 0;
#X connect 51 0 45 0;
#X connect 52 0 46 1;
#X connect 53 0 52 1;
#X connect 54 0 47 0;
#X connect 55 0 53 0;
#X connect 56 0 0 0;
#X connect 56 0 17 0;
